<svg width="200" height="31" viewBox="0 0 200 31" fill="none" xmlns="http://www.w3.org/2000/svg">
    <path
        d="M3.5562 30.1699L3.57407 30.1807C3.64913 30.2238 3.74205 30.2238 3.81711 30.1807L10.7937 26.1035C10.8151 26.0963 10.833 26.0891 10.8509 26.082C10.9259 26.0389 10.9724 25.9564 10.9724 25.8702V21.9043C10.9688 21.8612 10.9545 21.8146 10.9295 21.7751C10.9081 21.7356 10.8759 21.6997 10.8366 21.6782L7.54486 19.7831L7.53057 15.2932C7.53057 15.2071 7.4841 15.1281 7.40905 15.085L3.99223 13.1182C3.91718 13.0752 3.82426 13.0752 3.75278 13.1182L0.11794 15.243C0.0821989 15.2645 0.0536098 15.2932 0.0321654 15.3291C0.0107209 15.365 0 15.4081 0 15.4511L0.0428871 27.977C0.0428871 27.977 0.0428871 27.9949 0.0428871 28.0057C0.0428871 28.0918 0.0893488 28.1708 0.164404 28.2139L3.55977 30.1663L3.5562 30.1699ZM0.721959 15.4511L3.87429 13.6099L6.80861 15.2968L3.65627 17.138L0.721959 15.4511ZM10.2504 21.9007L7.55559 23.4763L7.54486 20.3466L10.2469 21.9007H10.2504ZM3.41681 17.5579L3.45256 29.549L0.521812 27.8621L0.478925 15.8675L3.41324 17.5543L3.41681 17.5579Z"
        fill="#28025F" />
    <path
        d="M3.81361 12.5882L7.11963 10.7183L10.9689 13.0046C11.044 13.0476 11.1369 13.0512 11.2084 13.0046L14.6395 11.0665C14.7145 11.0234 14.761 10.9444 14.761 10.8583L14.8075 6.63756C14.8075 6.55142 14.7646 6.46887 14.6895 6.4258L3.95301 0.0480176C3.95301 0.0480176 3.93871 0.0372501 3.93156 0.033661C3.85651 -0.00940787 3.76357 -0.0129969 3.68852 0.033661L0.278859 1.96099L0.257415 1.97176C0.221675 1.9933 0.189508 2.02201 0.168064 2.06149C0.146619 2.10097 0.135898 2.14045 0.135898 2.17992L0.050113 10.2841C0.0429648 10.3056 0.0429688 10.3235 0.0429688 10.3451C0.0429688 10.4312 0.0858528 10.5138 0.160908 10.5568L3.55628 12.5846C3.59559 12.6062 3.63849 12.6205 3.68495 12.6169C3.73141 12.6169 3.7743 12.6098 3.81361 12.5882ZM3.92441 11.9709L3.95657 8.84125L6.63713 10.4348L3.92084 11.9709H3.92441ZM11.1369 8.29929L0.861435 2.19069L3.80289 0.525362L14.0819 6.63038L11.1369 8.2957V8.29929ZM11.3335 12.3837L11.3728 8.72281L14.3178 7.05748L14.2785 10.7183L11.3335 12.3837Z"
        fill="#28025F" />
    <path
        d="M11.0583 21.2626C11.0583 21.3487 11.1047 21.4277 11.1762 21.4743L14.8003 23.617C14.8754 23.6601 14.9683 23.6601 15.0398 23.617L25.8907 17.4402C25.8907 17.4402 25.905 17.433 25.9157 17.4294C25.9907 17.3864 26.0372 17.3074 26.0372 17.2213L26.0694 13.2912V13.2661C26.0694 13.18 26.0265 13.101 25.9514 13.0579L18.9927 8.94846C18.9927 8.94846 18.9641 8.91975 18.9462 8.91257C18.8712 8.8695 18.7783 8.86591 18.7032 8.91257L15.2614 10.8614C15.2256 10.883 15.1935 10.9153 15.172 10.9512L15.1649 10.9655C15.1434 11.0014 15.1327 11.0445 15.1327 11.0875L15.1005 14.8956L11.2084 17.11C11.1726 17.1315 11.1405 17.1603 11.119 17.1997C11.0976 17.2392 11.0869 17.2787 11.0869 17.3218L11.0547 21.2769L11.0583 21.2626ZM15.5902 14.612L15.6152 11.4823L18.3029 13.0687L15.5902 14.612ZM15.1684 22.9889L15.197 19.5936L25.5904 13.686L25.5619 17.0777L15.172 22.9889H15.1684ZM14.6859 22.9853L11.5408 21.1262L11.5694 17.7309L14.7145 19.5901L14.6859 22.9853Z"
        fill="#28025F" />
    <path d="M45.5726 6.83789V18.2368H56.034V22.9313H40.0078V6.83789H45.5726Z" fill="#28025F" />
    <path
        d="M75.3948 22.9313L74.0831 20.1139H65.2694L63.9577 22.9313H58.0391L65.7162 6.83789H73.6399L81.317 22.9313H75.3983H75.3948ZM67.1387 16.0941H72.2138L69.6762 10.6854L67.1387 16.0941Z"
        fill="#28025F" />
    <path d="M88.6586 6.83789V22.9313H83.0938V6.83789H88.6586Z" fill="#28025F" />
    <path
        d="M102.621 6.83789C108.164 6.83789 110.966 9.80964 111.434 12.8496H110.076C109.744 10.7715 107.649 8.02229 102.621 8.02229C96.5233 8.02229 94.4754 12.0241 94.4754 15.1071C94.4754 18.1901 96.5018 22.1919 102.599 22.1919C105.848 22.1919 107.717 21.5674 110.076 20.3364V16.5822H102.31V15.3763H111.434V20.8963C108.496 22.5724 106.138 23.3763 102.599 23.3763C96.945 23.3763 93.1172 20.1139 93.1172 15.1071C93.1172 10.1004 96.945 6.83789 102.621 6.83789Z"
        fill="#28025F" />
    <path
        d="M131.925 22.9319L129.566 18.9301H117.125L114.766 22.9319H113.297L122.554 7.28711H124.133L133.415 22.9319H131.925ZM117.836 17.7241H128.851L123.354 8.38178L117.836 17.7241Z"
        fill="#28025F" />
    <path
        d="M136.312 22.9319V7.28711H138.139L147.421 21.4998L156.703 7.28711H158.529V22.9319H157.239V8.76222L148.025 22.9319H146.824L137.61 8.76222V22.9319H136.32H136.312Z"
        fill="#28025F" />
    <path
        d="M177.886 7.28679V8.47119H163.907V14.5044H177.439V15.7103H163.907V21.7436H177.886V22.928H162.617V7.2832H177.886V7.28679Z"
        fill="#28025F" />
    <path
        d="M181.846 17.7023C181.846 21.0115 184.338 22.1958 190.46 22.1958C195.224 22.1958 197.715 21.3022 197.715 18.7539C197.715 16.2057 195.889 15.9616 189.792 15.6027C183.205 15.2223 181.157 14.2173 181.157 11.0446C181.157 7.87186 184.095 6.8418 189.681 6.8418C195.267 6.8418 198.405 8.53943 198.405 12.2505H197.047C197.047 9.03113 194.399 8.02619 189.234 8.02619C184.405 8.02619 182.511 8.8768 182.511 11.0877C182.511 13.6144 184.402 14.0379 189.788 14.3968C195.932 14.7988 199.07 15.068 199.07 18.7109C199.07 22.3538 195.51 23.3802 190.303 23.3802C183.916 23.3802 180.553 22.0631 180.488 17.7023H181.846Z"
        fill="#28025F" />
</svg>